<svg version="1.2" xmlns="http://www.w3.org/2000/svg" viewBox="0 0 128 128" width="128" height="128">
	<title>black-logo-svg</title>
	<style>
		.s0 { fill: #000000 }
	</style>
	<path id="Layer" fill-rule="evenodd" class="s0" d="m44.5 13.3q3.7-2.4 7.3-4.8c0.3-0.2 0.6-0.3 0.9-0.3q3.5 0.4 6.9 0.8 3.5 0.4 7 0.8 3.4 0.4 6.8 0.8 3.7 0.4 7.5 0.9 6 0.7 12 1.3c3.6 0.4 7.2 0.8 10.7 1.2q5.2 0.6 10.3 1.2 2.1 0.2 4.1 0.4c0.6 0.1 0.7 0.2 0.6 0.8q-1.6 5.2-3.1 10.4-1.6 5.3-3.1 10.5c-0.1 0.5-0.3 0.7-0.9 0.7q-5.5-0.7-10.9-1.4c-4-0.6-7.9-1.1-11.8-1.6q-7.6-0.9-15.1-1.9c-2.8-0.3-5.6-0.8-8.4-1.2-1.3-0.1-2.6-0.2-3.9-0.4-0.1 0-0.3 0-0.5 0.2 1.3 3.6 2.7 7.2 4.1 10.9-18-2.5-35.8-5.1-53.6-7-0.2-0.1-0.5-0.1-0.6-0.4 11.3-7.2 22.5-14.6 33.7-21.9zm8.7-0.1c-0.3-0.1-0.5 0-0.8 0.2-0.2 0.1-0.4 0.3-0.7 0.5-2.4 1.6-4.9 3.3-7.3 5-3.6 2.4-7.1 5-10.7 7.4q-3.9 2.7-7.8 5.5-1.2 0.8-2.5 1.7c-0.2 0.2-0.3 0.4-0.2 0.7 0 0.2 0.2 0.3 0.4 0.3 1.2-0.2 2.4-0.3 3.6-0.8 0.9-0.5 1.9-1.1 2.9-1 1.5 0 3.1 0.2 4.4 1 1.5 0.9 2.9 1.8 4.6 2.2 1.1 0.4 2.2 0.6 3.3 0.6 1-0.1 1.9-0.4 2.7-1 0.5-0.4 1-0.6 1.6-0.7q2.9-0.4 5.6 0.4c1.2 0.3 2.2 0.1 3-0.8 0.7-0.8 1.6-1.4 2.1-2.3 0.1-0.2 0.3-0.3 0.4-0.5 0.6-0.4 1.1-0.9 1.5-1.4 0.5-0.5 0.5-0.8 0.2-1.4q-2.7-6.9-5.4-13.8c-0.2-0.6-0.3-1.3-0.9-1.8z"/>
	<path id="Layer" fill-rule="evenodd" class="s0" d="m19.8 73.9q-1-2.8-2-5.6c-1-3.1-2.1-6.2-3.2-9.3q-1.6-4.6-3.2-9.3c-0.2-0.6 0-0.7 0.5-0.9q6-1.9 12-3.7 0.6-0.2 1.3-0.5c0.4-0.1 0.6 0 0.7 0.4q1.3 4.6 2.6 9.1 1.1 3.7 2.2 7.5 1 3.6 2 7.2 1.1 4.2 2.3 8.4 1.2 4.4 2.3 8.9 1.2 4.4 2.3 8.8c0.7 3 1.5 6 2.3 8.9q1.2 5.1 2.5 10.1c0.1 0.3 0.1 0.5 0.5 0.5q11.2 0 22.4 0 11 0 22 0c1.4 0 1.5 0 1.8-1.4q0.9-3.4 1.7-6.7 1.5-5.6 2.9-11.2 1.1-4.4 2.2-8.9 1.4-5.1 2.7-10.2c1.1-4.1 2.2-8.2 3.3-12.3 0.9-3.2 1.8-6.3 2.8-9.5q1.3-4.6 2.7-9.2c0.2-0.8 0.3-0.8 1.1-0.5q5 1.8 10 3.7 1 0.4 2 0.8c0.5 0.2 0.5 0.5 0.4 0.8-0.8 1.6-1.2 3.3-1.8 4.9-1.2 3.1-2.2 6.1-3.3 9.2q-1.9 5.2-3.8 10.4c-0.2 0.6-0.2 0.6-0.9 0.3-2.3-1.1-4.7-2.1-7.1-3.2-0.2 0.6-0.4 1.2-0.5 1.8q-1.5 5.6-2.9 11.2c-1 3.7-1.9 7.4-2.8 11.1q-1.5 5.8-2.9 11.6-1.4 5.3-2.7 10.6c-0.1 0.6-0.4 0.7-0.9 0.7q-12 0-24 0-13.5 0-26.9 0c-1 0-1 0-1.2-0.9q-1.6-6.2-3.1-12.3-1.9-7.4-3.8-14.8-1.9-7.2-3.8-14.3-0.6-2.3-1.2-4.6-0.1-0.4-0.2-0.8c-0.7 0.1-1.2 0.5-1.8 0.8q-3.2 1.4-6.4 2.9c-0.8 0.4-0.8 0.4-1.1-0.5zm-3.6-20.8q0.9 2.5 1.8 5 2 5.7 3.9 11.3c0.2 0.4 0.3 0.5 0.7 0.3 1.7-0.7 3.4-1.4 5.1-2.1 0.6-0.2 0.6-0.6 0.5-1.1-0.4-1.3-0.7-2.5-1.1-3.8-1.3-4.3-2.5-8.7-3.7-13.1-0.2-0.5-0.4-0.6-0.9-0.4-1.7 0.5-3.5 1-5.2 1.6-1.7 0.5-1.7 0.5-1.1 2.3zm99.3 6.8q1.4-4 2.8-8c0.2-0.3 0.2-0.6-0.2-0.8-1.8-0.8-3.7-1.4-5.5-2.1q-0.5-0.2-0.6 0.3c-0.1 0.4-0.3 0.9-0.4 1.3q-1.3 4.6-2.5 9.2c-0.7 2.6-1.5 5.1-2.1 7.7-0.1 0.3-0.1 0.5 0.3 0.7q2 0.9 4 1.8c0.4 0.1 0.5 0.1 0.7-0.3q0.2-0.9 0.5-1.8c1-2.6 2-5.3 3-8z"/>
	<path id="Layer" fill-rule="evenodd" class="s0" d="m48.4 55.8q7.1 0 14 0c0.2 0.3 0.1 0.4 0 0.6-1.1 2.4-2.3 4.9-4.1 6.9-2.9 3.3-6.5 5-10.9 4.6-4-0.4-6.9-2.4-9.3-5.6-1.4-1.9-2.3-4-3.4-6 0-0.1 0-0.2-0.1-0.5 4.6 0 9.2 0 13.8 0zm-4 3.5q-2.2 0-4.4 0c1.4 2.8 5.1 6.1 10 5.4 3-0.4 6.5-3.2 7.1-5.4q-2.2 0-4.4 0c-0.3 0-0.4 0.2-0.5 0.4-0.1 0.5-0.3 0.9-0.5 1.3-0.5 1-1.6 1.3-2.6 0.9-0.8-0.3-1.2-1-1.4-1.8-0.2-0.6-0.5-0.9-1.1-0.8-0.7 0-1.4 0-2.2 0z"/>
	<path id="Layer" fill-rule="evenodd" class="s0" d="m94.8 65c-2.5 2-5.2 3.1-8.3 3q-4.8-0.1-8.2-3.5c-2.5-2.2-3.9-5.2-5.2-8.2q0-0.1 0-0.2 0-0.1 0-0.2c9.3 0 18.5 0 27.9 0-1.7 3.4-3.3 6.7-6.2 9.1zm-9.8-5.7q-3.3 0-6.8 0c1.5 3.1 5.5 6.1 10 5.4 2.9-0.5 6.8-3.4 7.1-5.3-0.2-0.2-0.5-0.1-0.7-0.1-1.1 0-2.2 0-3.3 0-0.5 0-0.7 0.2-0.9 0.6-0.6 2-0.6 2-2.7 2q0 0-0.1 0c-0.7 0-1.1-0.3-1.4-1q-0.2-0.4-0.2-0.9c-0.1-0.5-0.3-0.8-1-0.7z"/>
	<path id="Layer" class="s0" d="m61.7 84.1q0-8.7 0-17.3c0-0.8 0-0.8 0.9-0.8 0.8 0 1.6 0 2.4 0 0.6-0.1 0.8 0.2 0.8 0.8q0 8.1 0 16.2c0 1.2-0.1 1.1 1.1 1.1q2.9 0 5.8 0c0.6 0 0.8 0.1 0.8 0.8q0 1.3 0 2.7c0 0.5-0.2 0.8-0.7 0.8q-5.2 0-10.4 0c-0.5 0-0.7-0.2-0.7-0.7 0-1.2 0-2.3 0-3.6z"/>
	<path id="Layer" class="s0" d="m57.8 97c3.9-1.1 7.8-1.6 11.8-1.4 5 0.3 9.7 1.6 14.3 3.7q0.3 0.2 0.6 0.3c0.8 0.5 0.8 1.2 0 1.8-0.2 0.1-0.4 0.1-0.7 0q-3.5-1.6-7.2-2.7c-2-0.5-4-0.8-6-1-3-0.4-5.9-0.2-8.8 0.4q-3 0.5-5.8 1.5c-1.5 0.5-2.9 1-4.3 1.7-0.4 0.2-1.1-0.1-1.2-0.5-0.3-0.6-0.1-0.9 0.4-1.2 1.5-0.7 3.1-1.3 4.6-1.9 0.7-0.2 1.5-0.5 2.3-0.7z"/>
	<path id="Layer" class="s0" d="m55.8 54.1q-3.4-0.8-6.6-1.6-3.9-1-7.9-1.9-3.6-0.9-7.3-1.7-0.3-0.1-0.6-0.2c0.2-0.2 0.4-0.2 0.6-0.2 2 0.2 4.1 0.2 6.1 0.3 2.2 0.1 4.4 0.2 6.6 0.4q2.5 0.2 4.9 0.4 3.6 0.3 7.2 0.5c0.4 0.1 0.6 0.2 0.4 0.6q-0.9 1.6-1.7 3.3c-0.2 0.5-0.5 0.7-1 0.4-0.2-0.2-0.5-0.2-0.7-0.3z"/>
	<path id="Layer" class="s0" d="m92.8 48.9c3-0.2 6-0.2 9-0.4-0.3 0.3-0.7 0.3-1.1 0.4q-4.8 1.1-9.7 2.4c-3.2 0.8-6.3 1.6-9.5 2.4-0.9 0.2-1.7 0.3-2.6 0.6-0.5 0.2-0.8 0.1-1-0.4-0.5-1.1-1-2.2-1.5-3.3-0.1-0.2-0.1-0.3 0-0.4 0.5-0.2 1-0.1 1.6-0.2 2-0.1 4.1-0.3 6.1-0.4q2.4-0.2 4.9-0.4 1.9-0.2 3.8-0.3z"/>
	<path id="Layer" class="s0" d="m71.7 103.8c-1-0.2-2-0.5-3-0.5q-2.4-0.2-4.7 0.4c-0.7 0.2-0.8 0.1-1-0.8-0.2-0.7-0.1-1 0.5-1.1 2.7-0.8 5.4-0.8 8.1-0.1 0.5 0.1 0.9 0.4 0.9 0.9 0 0.5-0.2 1-0.8 1.2z"/>
</svg>
